<svg width="221" height="48" viewBox="0 0 221 48" fill="none" xmlns="http://www.w3.org/2000/svg">
<path d="M64.3655 7.56619L68.2406 17.863L72.1065 7.56619H75.1236V21H72.7985V16.5713L73.0292 10.6478L69.0618 21H67.3918L63.4336 10.6571L63.6642 16.5713V21H61.3392V7.56619H64.3655ZM82.2446 21H79.9195V7.56619H82.2446V21ZM94.025 17.5401C94.025 16.9496 93.8159 16.4944 93.3976 16.1745C92.9855 15.8547 92.2382 15.5317 91.1556 15.2057C90.073 14.8797 89.2119 14.5168 88.5721 14.117C87.3481 13.3481 86.7361 12.3455 86.7361 11.1092C86.7361 10.0266 87.1759 9.1347 88.0555 8.43348C88.9412 7.73227 90.0884 7.38166 91.497 7.38166C92.4319 7.38166 93.2654 7.55389 93.9973 7.89834C94.7293 8.2428 95.3044 8.73488 95.7227 9.37459C96.141 10.0081 96.3501 10.7124 96.3501 11.4875H94.025C94.025 10.7862 93.8036 10.2388 93.3607 9.84514C92.924 9.44532 92.2966 9.24542 91.4785 9.24542C90.7158 9.24542 90.1222 9.40842 89.6978 9.73442C89.2795 10.0604 89.0704 10.5156 89.0704 11.0999C89.0704 11.592 89.298 12.0041 89.7531 12.3363C90.2083 12.6623 90.9587 12.9822 92.0044 13.2959C93.0501 13.6034 93.8897 13.9571 94.5233 14.3569C95.1568 14.7506 95.6212 15.2057 95.9165 15.7224C96.2117 16.233 96.3593 16.8327 96.3593 17.5216C96.3593 18.6411 95.9288 19.533 95.0676 20.1973C94.2126 20.8555 93.0501 21.1845 91.58 21.1845C90.6081 21.1845 89.7132 21.0062 88.8951 20.6494C88.0831 20.2865 87.4496 19.7883 86.9944 19.1547C86.5454 18.5211 86.3209 17.783 86.3209 16.9403H88.6552C88.6552 17.7031 88.9074 18.2936 89.4118 18.7118C89.9161 19.1301 90.6389 19.3392 91.58 19.3392C92.3919 19.3392 93.0009 19.1762 93.4068 18.8502C93.819 18.5181 94.025 18.0813 94.025 17.5401ZM110.004 9.4484H105.815V21H103.499V9.4484H99.3469V7.56619H110.004V9.4484ZM130.003 19.2562C129.517 19.8897 128.843 20.3695 127.982 20.6955C127.121 21.0215 126.143 21.1845 125.048 21.1845C123.923 21.1845 122.926 20.9293 122.059 20.4187C121.192 19.9082 120.521 19.1793 120.047 18.232C119.58 17.2786 119.337 16.1684 119.319 14.9013V13.8494C119.319 11.8196 119.805 10.2357 120.776 9.09779C121.748 7.9537 123.105 7.38166 124.845 7.38166C126.34 7.38166 127.527 7.75072 128.407 8.48884C129.286 9.22696 129.815 10.2911 129.994 11.6812H127.706C127.447 10.0635 126.509 9.25464 124.891 9.25464C123.846 9.25464 123.049 9.63293 122.502 10.3895C121.96 11.1399 121.681 12.244 121.662 13.7018V14.7352C121.662 16.1868 121.967 17.3155 122.576 18.1213C123.191 18.921 124.043 19.3208 125.131 19.3208C126.325 19.3208 127.173 19.0501 127.678 18.5088V15.8793H124.91V14.1078H130.003V19.2562ZM141.977 17.8722H136.773L135.685 21H133.258L138.333 7.56619H140.427L145.511 21H143.075L141.977 17.8722ZM137.428 15.99H141.322L139.375 10.4172L137.428 15.99ZM153.868 15.8239H151.266V21H148.932V7.56619H153.656C155.206 7.56619 156.402 7.91372 157.245 8.60879C158.088 9.30385 158.509 10.3095 158.509 11.6259C158.509 12.5239 158.291 13.2774 157.854 13.8864C157.424 14.4892 156.821 14.9536 156.046 15.2796L159.063 20.8801V21H156.562L153.868 15.8239ZM151.266 13.9509H153.665C154.453 13.9509 155.068 13.7541 155.511 13.3604C155.953 12.9606 156.175 12.4163 156.175 11.7273C156.175 11.0077 155.969 10.451 155.557 10.0573C155.151 9.66368 154.542 9.4607 153.73 9.4484H151.266V13.9509ZM162.613 21V7.56619H166.581C167.768 7.56619 168.819 7.83068 169.736 8.35967C170.659 8.88866 171.372 9.63908 171.877 10.6109C172.381 11.5828 172.633 12.6961 172.633 13.9509V14.6245C172.633 15.8977 172.378 17.0172 171.867 17.9829C171.363 18.9486 170.64 19.6929 169.699 20.2157C168.764 20.7386 167.691 21 166.479 21H162.613ZM164.947 9.4484V19.1362H166.47C167.694 19.1362 168.632 18.7549 169.284 17.9922C169.942 17.2233 170.277 16.1222 170.29 14.6891V13.9417C170.29 12.4839 169.973 11.3706 169.339 10.6017C168.706 9.83284 167.786 9.4484 166.581 9.4484H164.947ZM184.7 15.0028H179.182V19.1362H185.631V21H176.848V7.56619H185.567V9.4484H179.182V13.1575H184.7V15.0028ZM200.078 21H197.744L191.756 11.469V21H189.422V7.56619H191.756L197.762 17.1341V7.56619H200.078V21ZM211.748 17.5401C211.748 16.9496 211.539 16.4944 211.121 16.1745C210.708 15.8547 209.961 15.5317 208.879 15.2057C207.796 14.8797 206.935 14.5168 206.295 14.117C205.071 13.3481 204.459 12.3455 204.459 11.1092C204.459 10.0266 204.899 9.1347 205.778 8.43348C206.664 7.73227 207.811 7.38166 209.22 7.38166C210.155 7.38166 210.988 7.55389 211.72 7.89834C212.452 8.2428 213.027 8.73488 213.446 9.37459C213.864 10.0081 214.073 10.7124 214.073 11.4875H211.748C211.748 10.7862 211.527 10.2388 211.084 9.84514C210.647 9.44532 210.02 9.24542 209.202 9.24542C208.439 9.24542 207.845 9.40842 207.421 9.73442C207.003 10.0604 206.793 10.5156 206.793 11.0999C206.793 11.592 207.021 12.0041 207.476 12.3363C207.931 12.6623 208.682 12.9822 209.727 13.2959C210.773 13.6034 211.613 13.9571 212.246 14.3569C212.88 14.7506 213.344 15.2057 213.639 15.7224C213.935 16.233 214.082 16.8327 214.082 17.5216C214.082 18.6411 213.652 19.533 212.791 20.1973C211.936 20.8555 210.773 21.1845 209.303 21.1845C208.331 21.1845 207.436 21.0062 206.618 20.6494C205.806 20.2865 205.173 19.7883 204.717 19.1547C204.268 18.5211 204.044 17.783 204.044 16.9403H206.378C206.378 17.7031 206.63 18.2936 207.135 18.7118C207.639 19.1301 208.362 19.3392 209.303 19.3392C210.115 19.3392 210.724 19.1762 211.13 18.8502C211.542 18.5181 211.748 18.0813 211.748 17.5401Z" fill="white"/>
<path d="M63.2771 28.2049L64.8115 35.3414L68.8311 28.2049H70.3174L68.795 36.9661H67.6698L68.2715 33.5001L68.9875 29.974L65.0161 36.9661H64.1496L62.5851 29.8356L62.0436 33.6144L61.4599 36.9661H60.3287L61.851 28.2049H63.2771ZM74.9114 36.3222C74.402 36.8477 73.7541 37.1025 72.9679 37.0864C72.3461 37.0704 71.8847 36.8477 71.5839 36.4185C71.287 35.9893 71.1767 35.4036 71.2529 34.6614L71.9509 30.4554H73.0401L72.336 34.6795C72.316 34.856 72.312 35.0285 72.324 35.197C72.3441 35.4858 72.4303 35.7125 72.5828 35.8769C72.7352 36.0414 72.9478 36.1297 73.2206 36.1417C73.9988 36.1658 74.6006 35.8509 75.0258 35.197L75.8441 30.4554H76.9333L75.802 36.9661H74.773L74.9114 36.3222ZM81.5875 35.203C81.6477 34.7537 81.401 34.4368 80.8474 34.2523L79.7161 33.9213C78.7614 33.5924 78.3001 33.0468 78.3322 32.2846C78.3602 31.711 78.621 31.2416 79.1144 30.8766C79.6118 30.5075 80.1955 30.327 80.8654 30.335C81.5233 30.343 82.0569 30.5356 82.466 30.9127C82.8792 31.2857 83.0778 31.7731 83.0618 32.3749L81.9786 32.3689C81.9867 32.0439 81.8844 31.7792 81.6718 31.5746C81.4591 31.37 81.1763 31.2637 80.8233 31.2557C80.4462 31.2476 80.1213 31.3399 79.8485 31.5324C79.5958 31.713 79.4494 31.9496 79.4093 32.2425C79.3571 32.6196 79.5878 32.8944 80.1012 33.0669L80.6488 33.2173C81.395 33.4098 81.9245 33.6606 82.2374 33.9695C82.5503 34.2783 82.6947 34.6614 82.6706 35.1188C82.6466 35.5239 82.5142 35.8769 82.2735 36.1778C82.0328 36.4787 81.7119 36.7093 81.3107 36.8698C80.9096 37.0262 80.4823 37.0984 80.029 37.0864C79.3391 37.0784 78.7694 36.8778 78.3201 36.4847C77.8708 36.0875 77.6542 35.5781 77.6703 34.9563L78.7594 34.9623C78.7594 35.3274 78.8757 35.6202 79.1084 35.8408C79.3411 36.0615 79.66 36.1718 80.0651 36.1718C80.4623 36.1798 80.8053 36.0976 81.0941 35.9251C81.3829 35.7486 81.5474 35.5079 81.5875 35.203ZM86.7171 37.0864C85.9068 37.0704 85.273 36.7715 84.8157 36.1898C84.3584 35.6082 84.1658 34.864 84.238 33.9574L84.2681 33.6987C84.3363 33.0528 84.5268 32.4631 84.8397 31.9296C85.1567 31.3961 85.5418 30.9949 85.9951 30.7261C86.4484 30.4533 86.9378 30.323 87.4633 30.335C88.1332 30.3511 88.6587 30.5737 89.0398 31.0029C89.4209 31.4322 89.6295 32.0138 89.6656 32.7479C89.6776 33.0087 89.6696 33.2694 89.6415 33.5302L89.5754 34.0296H85.3211C85.2489 34.6193 85.3452 35.1208 85.61 35.5339C85.8787 35.9471 86.2779 36.1618 86.8074 36.1778C87.4492 36.1938 88.0429 35.905 88.5885 35.3113L89.2143 35.8408C88.9415 36.234 88.5885 36.5428 88.1553 36.7675C87.726 36.9881 87.2467 37.0944 86.7171 37.0864ZM87.4091 31.2436C86.9598 31.2316 86.5667 31.384 86.2297 31.7009C85.8968 32.0178 85.632 32.4892 85.4355 33.115L88.6006 33.121L88.6246 33.0247C88.6888 32.5193 88.6066 32.1001 88.3779 31.7671C88.1533 31.4302 87.8303 31.2557 87.4091 31.2436ZM94.5485 36.3222C94.0391 36.8477 93.3912 37.1025 92.6049 37.0864C91.9832 37.0704 91.5218 36.8477 91.221 36.4185C90.9241 35.9893 90.8138 35.4036 90.89 34.6614L91.588 30.4554H92.6771L91.9731 34.6795C91.9531 34.856 91.9491 35.0285 91.9611 35.197C91.9811 35.4858 92.0674 35.7125 92.2198 35.8769C92.3723 36.0414 92.5849 36.1297 92.8577 36.1417C93.6359 36.1658 94.2376 35.8509 94.6629 35.197L95.4812 30.4554H96.5703L95.4391 36.9661H94.4101L94.5485 36.3222ZM99.3412 30.4493L99.2028 31.1774C99.7484 30.5998 100.408 30.319 101.182 30.335C101.596 30.343 101.945 30.4373 102.229 30.6178C102.518 30.7983 102.717 31.0531 102.825 31.382C103.435 30.668 104.155 30.319 104.985 30.335C105.635 30.3511 106.115 30.5697 106.424 30.9909C106.732 31.4121 106.847 31.9777 106.767 32.6878L106.05 36.9661H104.967L105.677 32.6757C105.701 32.4671 105.701 32.2766 105.677 32.1041C105.601 31.5585 105.244 31.2797 104.606 31.2677C104.209 31.2597 103.848 31.384 103.523 31.6408C103.202 31.8935 102.996 32.2264 102.903 32.6396L102.163 36.9661H101.068L101.79 32.6818C101.842 32.2365 101.774 31.8935 101.586 31.6528C101.401 31.4121 101.112 31.2877 100.719 31.2797C100.041 31.2637 99.5016 31.5726 99.1005 32.2064L98.2761 36.9661H97.187L98.3182 30.4554L99.3412 30.4493ZM111.243 34.6554C111.303 33.9093 111.749 33.2434 112.579 32.6577L113.265 32.2004L113.006 31.737C112.717 31.2075 112.589 30.7161 112.621 30.2628C112.669 29.6009 112.91 29.0694 113.343 28.6682C113.776 28.2631 114.322 28.0685 114.98 28.0845C115.521 28.0926 115.969 28.2691 116.322 28.6141C116.675 28.955 116.835 29.3803 116.803 29.8897C116.767 30.5797 116.34 31.2115 115.521 31.7852L114.637 32.3749L116.135 34.6675C116.5 34.1259 116.729 33.5442 116.821 32.9224H117.79C117.682 33.9454 117.319 34.8018 116.701 35.4918L117.646 36.9661H116.43L115.991 36.2861C115.293 36.8317 114.525 37.0964 113.686 37.0804C112.928 37.0724 112.318 36.8437 111.857 36.3944C111.396 35.9411 111.191 35.3615 111.243 34.6554ZM113.722 36.1778C114.26 36.1898 114.829 35.9632 115.431 35.4978L113.8 32.9465L113.542 33.127C112.824 33.6245 112.427 34.1359 112.35 34.6614C112.29 35.0947 112.386 35.4537 112.639 35.7385C112.892 36.0234 113.253 36.1698 113.722 36.1778ZM113.692 30.2207C113.66 30.5576 113.758 30.9287 113.987 31.3339L114.15 31.6167L115.07 30.9969C115.499 30.676 115.736 30.3049 115.78 29.8837C115.804 29.627 115.734 29.4144 115.57 29.2459C115.405 29.0774 115.186 28.9931 114.914 28.9931C114.581 28.9931 114.302 29.1155 114.077 29.3602C113.853 29.6009 113.724 29.8877 113.692 30.2207ZM121.936 36.9661L123.458 28.2049L126.027 28.2109C126.922 28.2109 127.592 28.4115 128.037 28.8126C128.482 29.2138 128.677 29.7734 128.621 30.4915C128.549 31.3299 128.021 31.9617 127.038 32.3869C127.431 32.5393 127.724 32.8001 127.917 33.1692C128.113 33.5382 128.194 33.9454 128.158 34.3907C128.097 35.1809 127.78 35.8087 127.207 36.2741C126.633 36.7354 125.891 36.9661 124.98 36.9661H121.936ZM123.777 32.8683L123.229 36.0213L125.016 36.0274C125.562 36.0274 126.019 35.8809 126.388 35.5881C126.757 35.2953 126.972 34.9001 127.032 34.4027C127.088 33.9293 127.006 33.5603 126.786 33.2955C126.565 33.0308 126.218 32.8904 125.745 32.8743L123.777 32.8683ZM123.939 31.9416L125.57 31.9476C126.08 31.9476 126.509 31.8173 126.858 31.5565C127.211 31.2958 127.417 30.9367 127.478 30.4794C127.53 30.0542 127.445 29.7333 127.225 29.5167C127.008 29.3 126.647 29.1817 126.142 29.1616L124.421 29.1556L123.939 31.9416ZM133.016 30.335C133.562 30.343 134.029 30.4915 134.418 30.7803C134.808 31.0691 135.094 31.4683 135.279 31.9777C135.467 32.4832 135.532 33.0368 135.471 33.6385L135.459 33.7709C135.383 34.4047 135.195 34.9784 134.894 35.4918C134.593 36.0013 134.204 36.3984 133.726 36.6833C133.249 36.9681 132.726 37.1025 132.156 37.0864C131.614 37.0784 131.147 36.93 130.754 36.6411C130.365 36.3523 130.08 35.9592 129.899 35.4617C129.719 34.9643 129.655 34.4167 129.707 33.819C129.767 33.1451 129.95 32.5393 130.254 32.0018C130.559 31.4643 130.95 31.0491 131.428 30.7562C131.909 30.4594 132.439 30.319 133.016 30.335ZM130.802 33.825C130.774 34.0778 130.774 34.3405 130.802 34.6133C130.842 35.0867 130.983 35.4637 131.223 35.7446C131.468 36.0254 131.793 36.1718 132.198 36.1838C132.559 36.1959 132.892 36.1076 133.197 35.9191C133.502 35.7265 133.759 35.4377 133.967 35.0526C134.176 34.6675 134.31 34.2402 134.37 33.7709C134.402 33.4018 134.408 33.0909 134.388 32.8382C134.34 32.3528 134.194 31.9697 133.949 31.6889C133.704 31.4081 133.379 31.2597 132.974 31.2436C132.413 31.2316 131.935 31.4522 131.542 31.9055C131.149 32.3588 130.906 32.9525 130.814 33.6866L130.802 33.825ZM139.283 28.8788L139.006 30.4554H140.192L140.041 31.3158H138.862L138.182 35.3655C138.17 35.4698 138.168 35.566 138.176 35.6543C138.204 35.9672 138.375 36.1236 138.688 36.1236C138.82 36.1236 138.996 36.1036 139.217 36.0635L139.133 36.9721C138.872 37.0443 138.607 37.0804 138.339 37.0804C137.905 37.0724 137.58 36.9139 137.364 36.605C137.147 36.2921 137.063 35.8729 137.111 35.3474L137.773 31.3158H136.624L136.774 30.4554H137.923L138.2 28.8788H139.283ZM144.485 36.9661C144.457 36.8497 144.443 36.7354 144.443 36.6231L144.461 36.2801C143.863 36.8337 143.229 37.1025 142.56 37.0864C141.986 37.0784 141.519 36.8979 141.158 36.5449C140.801 36.1878 140.638 35.7425 140.67 35.209C140.71 34.519 141.011 33.9815 141.573 33.5964C142.138 33.2073 142.88 33.0127 143.799 33.0127L144.936 33.0187L145.009 32.5012C145.049 32.1121 144.972 31.8052 144.78 31.5806C144.591 31.3519 144.307 31.2336 143.925 31.2256C143.552 31.2175 143.221 31.3098 142.933 31.5024C142.648 31.6909 142.473 31.9416 142.409 32.2545L141.314 32.2605C141.35 31.8794 141.499 31.5425 141.759 31.2496C142.02 30.9528 142.355 30.7241 142.764 30.5637C143.173 30.3992 143.597 30.321 144.034 30.329C144.712 30.345 145.239 30.5516 145.616 30.9488C145.993 31.3419 146.152 31.8654 146.092 32.5193L145.562 35.7446L145.532 36.2079C145.524 36.4285 145.548 36.6471 145.604 36.8638L145.592 36.9661H144.485ZM142.776 36.1236C143.125 36.1317 143.454 36.0494 143.763 35.8769C144.076 35.7004 144.345 35.4577 144.569 35.1488L144.804 33.807L143.98 33.801C143.294 33.801 142.768 33.9093 142.403 34.1259C142.038 34.3425 141.831 34.6494 141.783 35.0465C141.747 35.3514 141.817 35.6062 141.994 35.8107C142.174 36.0113 142.435 36.1156 142.776 36.1236ZM149.356 30.4493L149.2 31.2737C149.785 30.6319 150.451 30.319 151.197 30.335C151.811 30.3511 152.264 30.5637 152.557 30.9728C152.85 31.382 152.958 31.9577 152.882 32.6998L152.172 36.9661H151.083L151.799 32.6818C151.823 32.4852 151.825 32.3027 151.805 32.1342C151.737 31.5726 151.406 31.2857 150.812 31.2737C150.158 31.2617 149.585 31.6107 149.091 32.3207L148.285 36.9661H147.196L148.327 30.4554L149.356 30.4493ZM155.154 36.9661H154.07L155.202 30.4554H156.285L155.154 36.9661ZM156.05 28.0785C156.235 28.0705 156.387 28.1267 156.507 28.247C156.632 28.3633 156.694 28.5178 156.694 28.7103C156.69 28.8989 156.628 29.0533 156.507 29.1737C156.391 29.294 156.239 29.3582 156.05 29.3662C155.862 29.3742 155.707 29.3201 155.587 29.2038C155.466 29.0874 155.408 28.935 155.412 28.7464C155.416 28.5579 155.476 28.4014 155.593 28.2771C155.709 28.1527 155.862 28.0865 156.05 28.0785ZM159.808 36.1838C160.197 36.1918 160.548 36.0795 160.861 35.8468C161.174 35.6102 161.378 35.3013 161.475 34.9202L162.504 34.9142C162.443 35.3233 162.279 35.6964 162.01 36.0334C161.745 36.3704 161.41 36.6331 161.005 36.8216C160.6 37.0102 160.185 37.0984 159.76 37.0864C159.218 37.0784 158.759 36.938 158.382 36.6652C158.009 36.3884 157.734 36.0053 157.557 35.5159C157.381 35.0225 157.321 34.4689 157.377 33.8551L157.407 33.5543C157.483 32.9285 157.666 32.3689 157.954 31.8754C158.243 31.382 158.62 30.9989 159.086 30.7261C159.551 30.4493 160.065 30.319 160.626 30.335C161.308 30.3511 161.854 30.5797 162.263 31.021C162.672 31.4622 162.877 32.0219 162.877 32.6998L161.86 32.6938C161.852 32.2686 161.733 31.9256 161.505 31.6648C161.276 31.4001 160.967 31.2597 160.578 31.2436C160.012 31.2316 159.541 31.4422 159.164 31.8754C158.791 32.3087 158.558 32.9144 158.466 33.6927L158.448 33.8491C158.424 34.1058 158.42 34.3706 158.436 34.6434C158.464 35.1127 158.596 35.4838 158.833 35.7566C159.07 36.0294 159.395 36.1718 159.808 36.1838ZM167.483 36.9661C167.455 36.8497 167.441 36.7354 167.441 36.6231L167.459 36.2801C166.861 36.8337 166.227 37.1025 165.557 37.0864C164.984 37.0784 164.516 36.8979 164.155 36.5449C163.798 36.1878 163.636 35.7425 163.668 35.209C163.708 34.519 164.009 33.9815 164.57 33.5964C165.136 33.2073 165.878 33.0127 166.797 33.0127L167.934 33.0187L168.006 32.5012C168.046 32.1121 167.97 31.8052 167.778 31.5806C167.589 31.3519 167.304 31.2336 166.923 31.2256C166.55 31.2175 166.219 31.3098 165.93 31.5024C165.645 31.6909 165.471 31.9416 165.407 32.2545L164.312 32.2605C164.348 31.8794 164.496 31.5425 164.757 31.2496C165.018 30.9528 165.353 30.7241 165.762 30.5637C166.171 30.3992 166.594 30.321 167.031 30.329C167.709 30.345 168.237 30.5516 168.614 30.9488C168.991 31.3419 169.15 31.8654 169.089 32.5193L168.56 35.7446L168.53 36.2079C168.522 36.4285 168.546 36.6471 168.602 36.8638L168.59 36.9661H167.483ZM165.774 36.1236C166.123 36.1317 166.452 36.0494 166.761 35.8769C167.074 35.7004 167.342 35.4577 167.567 35.1488L167.802 33.807L166.977 33.801C166.291 33.801 165.766 33.9093 165.401 34.1259C165.036 34.3425 164.829 34.6494 164.781 35.0465C164.745 35.3514 164.815 35.6062 164.992 35.8107C165.172 36.0113 165.433 36.1156 165.774 36.1236ZM171.373 36.9661H170.29L171.89 27.7235H172.979L171.373 36.9661ZM183.136 35.8107C182.844 36.2239 182.416 36.5428 181.855 36.7675C181.297 36.9881 180.659 37.0944 179.941 37.0864C179.368 37.0744 178.866 36.94 178.437 36.6833C178.008 36.4265 177.671 36.0595 177.426 35.5821C177.181 35.1007 177.041 34.5551 177.005 33.9454C176.977 33.468 177.035 32.8222 177.179 32.0078C177.328 31.1935 177.584 30.4894 177.949 29.8957C178.314 29.302 178.77 28.8487 179.315 28.5358C179.865 28.2229 180.493 28.0725 181.199 28.0845C182.013 28.1006 182.661 28.3433 183.142 28.8126C183.628 29.278 183.905 29.9339 183.973 30.7803H182.854C182.809 30.2267 182.643 29.8015 182.354 29.5046C182.065 29.2078 181.666 29.0513 181.157 29.0353C180.402 29.0072 179.771 29.278 179.261 29.8476C178.756 30.4172 178.423 31.2496 178.262 32.3448L178.148 33.1872L178.13 33.6445C178.13 34.4348 178.292 35.0465 178.617 35.4798C178.942 35.909 179.398 36.1277 179.983 36.1357C180.83 36.1557 181.502 35.9471 181.999 35.5099L182.36 33.5422H180.386L180.555 32.6035H183.636L183.136 35.8107ZM188.735 36.9661C188.707 36.8497 188.693 36.7354 188.693 36.6231L188.711 36.2801C188.114 36.8337 187.48 37.1025 186.81 37.0864C186.236 37.0784 185.769 36.8979 185.408 36.5449C185.051 36.1878 184.888 35.7425 184.92 35.209C184.96 34.519 185.261 33.9815 185.823 33.5964C186.389 33.2073 187.131 33.0127 188.049 33.0127L189.187 33.0187L189.259 32.5012C189.299 32.1121 189.223 31.8052 189.03 31.5806C188.842 31.3519 188.557 31.2336 188.176 31.2256C187.803 31.2175 187.472 31.3098 187.183 31.5024C186.898 31.6909 186.724 31.9416 186.659 32.2545L185.564 32.2605C185.6 31.8794 185.749 31.5425 186.009 31.2496C186.27 30.9528 186.605 30.7241 187.014 30.5637C187.424 30.3992 187.847 30.321 188.284 30.329C188.962 30.345 189.489 30.5516 189.867 30.9488C190.244 31.3419 190.402 31.8654 190.342 32.5193L189.812 35.7446L189.782 36.2079C189.774 36.4285 189.798 36.6471 189.855 36.8638L189.842 36.9661H188.735ZM187.026 36.1236C187.375 36.1317 187.704 36.0494 188.013 35.8769C188.326 35.7004 188.595 35.4577 188.82 35.1488L189.054 33.807L188.23 33.801C187.544 33.801 187.018 33.9093 186.653 34.1259C186.288 34.3425 186.082 34.6494 186.034 35.0465C185.997 35.3514 186.068 35.6062 186.244 35.8107C186.425 36.0113 186.685 36.1156 187.026 36.1236ZM195.496 31.4482L194.984 31.394C194.286 31.394 193.737 31.709 193.335 32.3388L192.535 36.9661H191.446L192.577 30.4554L193.63 30.4493L193.468 31.2075C193.929 30.6018 194.473 30.3069 195.098 30.323C195.231 30.323 195.403 30.3531 195.616 30.4132L195.496 31.4482ZM195.866 33.6987C195.946 33.0368 196.128 32.4391 196.413 31.9055C196.698 31.372 197.049 30.9728 197.466 30.7081C197.883 30.4433 198.343 30.317 198.844 30.329C199.57 30.345 200.128 30.6098 200.517 31.1233L201.143 27.7235H202.232L200.631 36.9661H199.638L199.753 36.2681C199.239 36.8297 198.605 37.1025 197.851 37.0864C197.25 37.0704 196.77 36.8357 196.413 36.3824C196.056 35.9251 195.864 35.3133 195.835 34.5471C195.823 34.3104 195.833 34.0276 195.866 33.6987ZM196.913 34.3245C196.901 34.8981 197.003 35.3434 197.219 35.6603C197.436 35.9772 197.753 36.1397 198.17 36.1477C198.8 36.1758 199.36 35.8589 199.849 35.197L200.367 32.1883C200.126 31.5946 199.689 31.2897 199.055 31.2737C198.626 31.2617 198.246 31.392 197.917 31.6648C197.593 31.9336 197.344 32.3127 197.171 32.8021C197.003 33.2875 196.917 33.795 196.913 34.3245ZM205.292 37.0864C204.481 37.0704 203.847 36.7715 203.39 36.1898C202.933 35.6082 202.74 34.864 202.812 33.9574L202.843 33.6987C202.911 33.0528 203.101 32.4631 203.414 31.9296C203.731 31.3961 204.116 30.9949 204.569 30.7261C205.023 30.4533 205.512 30.323 206.038 30.335C206.708 30.3511 207.233 30.5737 207.614 31.0029C207.995 31.4322 208.204 32.0138 208.24 32.7479C208.252 33.0087 208.244 33.2694 208.216 33.5302L208.15 34.0296H203.896C203.823 34.6193 203.92 35.1208 204.184 35.5339C204.453 35.9471 204.852 36.1618 205.382 36.1778C206.024 36.1938 206.617 35.905 207.163 35.3113L207.789 35.8408C207.516 36.234 207.163 36.5428 206.73 36.7675C206.3 36.9881 205.821 37.0944 205.292 37.0864ZM205.984 31.2436C205.534 31.2316 205.141 31.384 204.804 31.7009C204.471 32.0178 204.206 32.4892 204.01 33.115L207.175 33.121L207.199 33.0247C207.263 32.5193 207.181 32.1001 206.952 31.7671C206.728 31.4302 206.405 31.2557 205.984 31.2436ZM211.149 30.4493L210.993 31.2737C211.578 30.6319 212.244 30.319 212.991 30.335C213.604 30.3511 214.058 30.5637 214.35 30.9728C214.643 31.382 214.752 31.9577 214.675 32.6998L213.965 36.9661H212.876L213.592 32.6818C213.616 32.4852 213.618 32.3027 213.598 32.1342C213.53 31.5726 213.199 31.2857 212.605 31.2737C211.952 31.2617 211.378 31.6107 210.884 32.3207L210.078 36.9661H208.989L210.12 30.4554L211.149 30.4493Z" fill="white"/>
<path fill-rule="evenodd" clip-rule="evenodd" d="M24 48C37.2548 48 48 37.2548 48 24C48 10.7452 37.2548 0 24 0C10.7452 0 0 10.7452 0 24C0 30.8612 2.87918 37.05 7.49526 41.424C8.08984 41.0512 8.68027 40.6742 9.26615 40.293C9.3248 39.9639 9.39513 39.5653 9.47378 39.1119C9.5149 38.8804 9.5591 38.6352 9.61087 38.3794C9.65099 38.1735 9.69699 37.9618 9.74472 37.742L9.76469 37.6501C9.96246 36.7464 10.1699 35.731 10.3397 34.6667H10.2671C8.37285 34.7017 6.63539 34.1901 5.6319 33.0602C5.17355 32.5455 4.84917 31.9014 4.75323 31.1294C4.65121 30.304 4.80959 29.331 5.28012 28.2057L5.35317 27.9971L5.67298 28.0671C6.89574 28.3047 8.46113 28.6214 9.52705 30.004C10.0181 30.6397 10.4037 31.5041 10.5955 32.6987C10.6133 32.515 10.6293 32.3309 10.6433 32.1469C10.7258 31.0637 10.7451 29.9828 10.6567 28.9657C8.59508 28.153 6.94127 25.7409 6.4609 23.1092C6.27513 22.0905 6.25835 21.0382 6.47001 20.053C6.79283 18.55 7.61516 17.1994 9.01 16.2919L9.15619 16.1882L9.38613 16.3816C11.1982 17.8602 12.1072 19.9555 12.3539 22.2229C12.5869 24.3791 12.2123 26.6906 11.4449 28.7737L11.3249 29.0855C11.4751 30.076 11.5325 31.1274 11.5234 32.1849C11.5051 34.1995 11.2585 36.2324 10.9494 37.8906C10.9022 38.1495 10.8504 38.3993 10.794 38.6384C10.7316 38.8987 10.6647 39.1454 10.5961 39.3769L10.5819 39.4243C14.6626 36.6908 18.5016 33.7437 21.9554 30.5686C21.946 30.4399 21.9314 30.1897 21.9284 29.8475C21.9269 29.6846 21.9269 29.5049 21.9421 29.3069C21.957 29.1336 21.9831 28.9495 22.0105 28.7561C22.0282 28.6318 22.0463 28.5036 22.0624 28.372C22.1223 27.8919 22.1837 27.3759 22.2165 26.8523C20.9644 26.0101 19.901 24.8183 19.2086 23.5555C18.8706 22.9403 18.6209 22.3084 18.4747 21.7023C18.3178 21.0491 18.2661 20.4247 18.3483 19.8765C18.5051 18.8228 19.0549 18.0233 20.0934 17.7629C20.832 17.4812 21.6177 17.7554 22.3029 18.4102C22.9912 19.068 23.5729 20.1248 23.882 21.3384C24.3153 23.0507 24.1847 25.0613 23.0917 26.7086C23.1213 26.9646 23.1438 27.2213 23.1603 27.4751C23.1893 27.8984 23.2029 28.3095 23.1938 28.6933C23.1867 28.963 23.1784 29.2171 23.148 29.4481C25.3876 27.2974 27.4489 25.0448 29.2893 22.6859C29.7847 22.0523 30.1914 21.46 30.5528 20.8502L30.3927 20.545C29.5217 18.9324 29.0024 16.825 29.0283 14.8454C29.0405 13.9546 29.1623 13.0896 29.4029 12.313C29.6511 11.5136 30.0135 10.8009 30.5069 10.2482C31.2789 9.38021 32.3312 8.86713 33.6925 8.96001C34.559 8.94174 35.1574 9.45486 35.5046 10.2985C35.9964 11.4923 35.9476 13.4048 35.4284 15.2763C34.7874 17.5828 33.4125 19.7875 31.5636 20.6094C31.1214 21.488 30.6188 22.3009 29.9579 23.1929C29.6088 23.6637 29.2514 24.1308 28.8858 24.5941C29.0908 24.4987 29.3037 24.4057 29.5231 24.3153C29.8722 24.172 30.2361 24.0374 30.6104 23.9182C31.3077 22.558 32.5349 21.3509 33.9019 20.5661C34.5308 20.2053 35.1886 19.9343 35.8266 19.7744C36.4996 19.6054 37.1514 19.5475 37.7285 19.6327C38.8005 19.7911 39.6334 20.3546 39.9197 21.4433C40.2197 22.2199 40.2151 22.864 40.0141 23.3909C39.6928 24.2391 38.8279 24.7994 37.7057 25.1116C35.5327 25.7177 32.3837 25.3765 30.8259 24.7415L30.8253 24.7412C30.7593 24.7735 30.6937 24.8061 30.6286 24.8391C29.9478 25.1841 29.3387 25.5912 28.7974 25.953C28.6243 26.0687 28.4582 26.1797 28.2989 26.2826C28.014 26.467 27.7498 26.6175 27.5223 26.7471L27.5223 26.7471L27.5222 26.7472L27.5116 26.7532C27.1168 26.9764 26.8411 27.1164 26.742 27.1657C24.1986 30.0597 21.3428 32.7996 18.2555 35.3886C18.3518 35.3749 18.4521 35.3619 18.5563 35.3503C18.7243 35.3317 18.9009 35.3148 19.0844 35.2972C19.7144 35.2368 20.4261 35.1686 21.1525 35C21.3675 34.9498 21.5837 34.8942 21.7994 34.8319L21.8827 34.6502C22.8725 32.4193 24.6388 31.163 26.6275 30.595C27.4376 30.3651 28.2843 30.2479 29.1248 30.2342C30.4252 30.2144 31.7013 30.4322 32.8069 30.7352L33.1098 30.8052L32.9743 31.1737C32.0531 33.8294 30.3765 35.1572 28.5674 35.7298C26.3876 36.4192 23.9929 35.9881 22.4192 35.3969C21.8453 35.6873 21.251 35.9184 20.6713 36.1024C20.1978 36.2532 19.7394 36.3735 19.3069 36.4557C18.9765 36.5197 18.6644 36.573 18.3781 36.5897C18.0812 36.605 17.8177 36.5897 17.5939 36.5699C17.2871 36.5421 17.0611 36.5042 16.9311 36.4787C14.3234 38.5859 11.5651 40.5901 8.70176 42.4931C12.855 45.9327 18.1861 48 24 48ZM10.9601 27.4186C11.4983 25.7551 11.7613 23.9786 11.6291 22.2899C11.4722 20.2799 10.7596 18.3963 9.27646 16.9908C8.24404 17.8496 7.71414 19.0115 7.50705 20.2495C7.36086 21.1174 7.37604 22.0265 7.53289 22.9158C7.897 24.9848 8.996 26.9552 10.5111 27.8616C10.3961 27.2289 10.2271 26.6338 9.99156 26.0939C9.94283 25.9934 9.98548 25.8716 10.086 25.8229C10.188 25.7742 10.3099 25.8168 10.3586 25.9173C10.6014 26.3768 10.8 26.8811 10.9601 27.4186ZM22.4416 24.1494C22.5801 24.4412 22.695 24.7624 22.7897 25.1018C23.2784 23.9467 23.3198 22.6613 23.0901 21.518C22.8297 20.2222 22.2329 19.0969 21.4974 18.5457C21.1091 18.2548 20.6873 18.1239 20.2655 18.2579C19.6868 18.5228 19.4219 19.0101 19.3366 19.6024C19.2605 20.1339 19.3625 20.7445 19.568 21.3993C19.731 21.9139 19.9655 22.4485 20.2579 22.9799C20.7532 23.8808 21.4185 24.773 22.2255 25.4934C22.2019 25.0695 22.1485 24.6648 22.0472 24.2971C22.0076 24.1889 22.0624 24.0672 22.1705 24.026C22.2801 23.9865 22.4005 24.0413 22.4416 24.1494ZM24.1097 34.2798C23.9019 34.4599 23.6841 34.6272 23.4588 34.7826C24.8344 35.2304 26.6524 35.4928 28.3558 35.0172C29.9258 34.5771 31.3891 33.5035 32.3225 31.3762C31.1439 31.1935 29.8055 31.1707 28.4853 31.3413C27.5884 31.457 26.696 31.658 25.8707 32.0249C24.7991 32.5015 23.8372 33.2353 23.1337 34.3375C23.3823 34.2205 23.6248 34.0894 23.8585 33.9417C23.9513 33.8731 24.0838 33.893 24.1523 33.9859C24.2224 34.0788 24.2026 34.2097 24.1097 34.2798ZM32.2969 24.1333C33.8057 24.5482 35.9294 24.7384 37.5199 24.3791C38.9665 24.0502 39.9562 23.2447 39.4248 21.6199C39.1416 21.0032 38.6299 20.7154 38.0163 20.6226C37.4559 20.5373 36.8133 20.6454 36.1372 20.8647C35.5966 21.0383 35.0424 21.291 34.4987 21.6047C33.6285 22.1058 32.7917 22.7644 32.1563 23.5388C32.5888 23.4664 33.0266 23.4233 33.464 23.4184C33.5797 23.4093 33.6817 23.4945 33.6908 23.6102C33.7 23.726 33.6147 23.828 33.499 23.8371C33.0913 23.9018 32.6896 24.0043 32.2969 24.1333ZM32.9957 17.1385C32.7578 17.7985 32.5365 18.3895 32.3154 18.9355C33.3752 18.0202 34.169 16.5441 34.6488 15.0434C35.1878 13.3592 35.3325 11.6248 34.932 10.5208C34.7081 9.9071 34.3138 9.49902 33.6925 9.48532C32.7758 9.55079 32.0875 9.92841 31.5591 10.4857C31.0399 11.0339 30.7079 11.7771 30.4947 12.6207C30.3196 13.3151 30.2358 14.0749 30.2252 14.8606C30.2069 16.4976 30.5176 18.2381 31.1465 19.6527C31.1675 19.6446 31.1885 19.6363 31.2094 19.6278C31.5967 18.8338 31.9586 17.9598 32.3715 16.904C32.4354 16.7304 32.6288 16.6436 32.8008 16.7075C32.9744 16.773 33.0612 16.9664 32.9957 17.1385ZM5.89381 28.6625C5.67148 29.5625 5.66844 30.3208 5.79482 30.9634C5.90294 31.5116 6.12372 31.9669 6.44959 32.34C7.19269 33.1928 8.42302 33.6298 9.81024 33.7287C9.78284 32.2075 9.4509 31.1644 8.94078 30.435C8.13677 29.2838 6.91861 28.9168 5.89381 28.6625Z" fill="white"/>
</svg>
