<svg width="173" height="24" viewBox="0 0 173 24" fill="none" xmlns="http://www.w3.org/2000/svg">
<path d="M4.56641 14.5322L6.82227 7.04688H9.10547L5.63965 17H3.5L0.0478516 7.04688H2.32422L4.56641 14.5322ZM14.3295 17H12.2787V7.04688H14.3295V17ZM24.325 12.6865H20.3875V15.3525H25.0086V17H18.3367V7.04688H24.9949V8.70801H20.3875V11.0801H24.325V12.6865ZM36.0637 14.1289L37.4035 7.04688H39.4475L37.2395 17H35.175L33.5549 10.3418L31.9348 17H29.8703L27.6623 7.04688H29.7062L31.0529 14.1152L32.6936 7.04688H34.4299L36.0637 14.1289ZM53.8672 14.9492H50.2715L49.5879 17H47.4072L51.1123 7.04688H53.0127L56.7383 17H54.5576L53.8672 14.9492ZM50.8252 13.2881H53.3135L52.0625 9.5625L50.8252 13.2881ZM61.8187 15.3525H66.1732V17H59.768V7.04688H61.8187V15.3525ZM71.5066 15.3525H75.8611V17H69.4559V7.04688H71.5066V15.3525ZM86.7809 13.4932V17H84.7301V7.04688H88.6129C89.3603 7.04688 90.0165 7.18359 90.5816 7.45703C91.1513 7.73047 91.5888 8.12012 91.8941 8.62598C92.1995 9.12728 92.3521 9.69922 92.3521 10.3418C92.3521 11.3171 92.0172 12.0872 91.3473 12.6523C90.6819 13.2129 89.7591 13.4932 88.5787 13.4932H86.7809ZM86.7809 11.832H88.6129C89.1552 11.832 89.5676 11.7044 89.8502 11.4492C90.1373 11.194 90.2809 10.8294 90.2809 10.3555C90.2809 9.86784 90.1373 9.47363 89.8502 9.17285C89.5631 8.87207 89.1666 8.71712 88.6607 8.70801H86.7809V11.832ZM104.043 12.249C104.043 13.2288 103.87 14.0879 103.523 14.8262C103.177 15.5645 102.68 16.1341 102.033 16.5352C101.391 16.9362 100.652 17.1367 99.8184 17.1367C98.9935 17.1367 98.2575 16.9385 97.6104 16.542C96.9632 16.1455 96.4619 15.5804 96.1064 14.8467C95.751 14.1084 95.571 13.2607 95.5664 12.3037V11.8115C95.5664 10.8317 95.7419 9.97038 96.0928 9.22754C96.4482 8.48014 96.9473 7.9082 97.5898 7.51172C98.237 7.11068 98.9753 6.91016 99.8047 6.91016C100.634 6.91016 101.37 7.11068 102.013 7.51172C102.66 7.9082 103.159 8.48014 103.51 9.22754C103.865 9.97038 104.043 10.8294 104.043 11.8047V12.249ZM101.965 11.7979C101.965 10.7542 101.778 9.96126 101.404 9.41895C101.031 8.87663 100.497 8.60547 99.8047 8.60547C99.1165 8.60547 98.5856 8.87435 98.2119 9.41211C97.8382 9.94531 97.6491 10.7292 97.6445 11.7637V12.249C97.6445 13.2653 97.8314 14.0537 98.2051 14.6143C98.5788 15.1748 99.1165 15.4551 99.8184 15.4551C100.507 15.4551 101.035 15.1862 101.404 14.6484C101.773 14.1061 101.96 13.3177 101.965 12.2832V11.7979ZM112.794 14.3887C112.794 14.0013 112.658 13.7051 112.384 13.5C112.111 13.2904 111.619 13.0716 110.908 12.8438C110.197 12.6113 109.634 12.3835 109.219 12.1602C108.089 11.5495 107.524 10.7269 107.524 9.69238C107.524 9.15462 107.674 8.67611 107.975 8.25684C108.28 7.83301 108.716 7.5026 109.281 7.26562C109.85 7.02865 110.488 6.91016 111.195 6.91016C111.906 6.91016 112.539 7.04004 113.095 7.2998C113.651 7.55501 114.082 7.91732 114.387 8.38672C114.697 8.85612 114.852 9.38932 114.852 9.98633H112.801C112.801 9.5306 112.658 9.17741 112.371 8.92676C112.083 8.67155 111.68 8.54395 111.161 8.54395C110.659 8.54395 110.27 8.65104 109.992 8.86523C109.714 9.07487 109.575 9.35286 109.575 9.69922C109.575 10.0228 109.736 10.2939 110.06 10.5127C110.388 10.7314 110.869 10.9365 111.502 11.1279C112.669 11.4788 113.519 11.9141 114.052 12.4336C114.585 12.9531 114.852 13.6003 114.852 14.375C114.852 15.2363 114.526 15.9131 113.874 16.4053C113.223 16.8929 112.345 17.1367 111.243 17.1367C110.477 17.1367 109.78 16.9977 109.151 16.7197C108.522 16.4372 108.041 16.0521 107.708 15.5645C107.38 15.0768 107.216 14.5117 107.216 13.8691H109.274C109.274 14.9674 109.93 15.5166 111.243 15.5166C111.73 15.5166 112.111 15.4186 112.384 15.2227C112.658 15.0221 112.794 14.7441 112.794 14.3887ZM125.839 8.70801H122.79V17H120.739V8.70801H117.731V7.04688H125.839V8.70801ZM134.166 14.3887C134.166 14.0013 134.029 13.7051 133.756 13.5C133.483 13.2904 132.99 13.0716 132.279 12.8438C131.569 12.6113 131.006 12.3835 130.591 12.1602C129.461 11.5495 128.896 10.7269 128.896 9.69238C128.896 9.15462 129.046 8.67611 129.347 8.25684C129.652 7.83301 130.087 7.5026 130.653 7.26562C131.222 7.02865 131.86 6.91016 132.567 6.91016C133.278 6.91016 133.911 7.04004 134.467 7.2998C135.023 7.55501 135.454 7.91732 135.759 8.38672C136.069 8.85612 136.224 9.38932 136.224 9.98633H134.173C134.173 9.5306 134.029 9.17741 133.742 8.92676C133.455 8.67155 133.052 8.54395 132.532 8.54395C132.031 8.54395 131.641 8.65104 131.363 8.86523C131.085 9.07487 130.946 9.35286 130.946 9.69922C130.946 10.0228 131.108 10.2939 131.432 10.5127C131.76 10.7314 132.241 10.9365 132.874 11.1279C134.041 11.4788 134.891 11.9141 135.424 12.4336C135.957 12.9531 136.224 13.6003 136.224 14.375C136.224 15.2363 135.898 15.9131 135.246 16.4053C134.595 16.8929 133.717 17.1367 132.614 17.1367C131.849 17.1367 131.152 16.9977 130.523 16.7197C129.894 16.4372 129.413 16.0521 129.08 15.5645C128.752 15.0768 128.588 14.5117 128.588 13.8691H130.646C130.646 14.9674 131.302 15.5166 132.614 15.5166C133.102 15.5166 133.483 15.4186 133.756 15.2227C134.029 15.0221 134.166 14.7441 134.166 14.3887Z" fill="#475F45"/>
<path d="M154 12H168" stroke="#475F45" stroke-width="2" stroke-linecap="round" stroke-linejoin="round"/>
<path d="M161 5L168 12L161 19" stroke="#475F45" stroke-width="2" stroke-linecap="round" stroke-linejoin="round"/>
</svg>
